<?xml version="1.0" encoding="UTF-8"?>
<svg id="Layer_1" data-name="Layer 1" xmlns="http://www.w3.org/2000/svg" viewBox="0 0 232.22 1363.76">
  <defs>
    <style>
      .cls-1 {
        fill: #853293;
      }

      .cls-2 {
        fill: #03aead;
      }

      .cls-3 {
        fill: #101627;
      }

      .cls-4 {
        fill: #ef464f;
      }
    </style>
  </defs>
  <g>
    <rect class="cls-1" x="134.11" y="81.69" width="20.55" height="7.02" transform="translate(97.84 -75.86) rotate(43.34)"/>
    <rect class="cls-2" x="138.94" y="76.59" width="20.53" height="7.02" transform="translate(95.65 -80.55) rotate(43.34)"/>
    <rect class="cls-4" x="143.67" y="71.55" width="20.56" height="7.02" transform="translate(93.49 -85.18) rotate(43.34)"/>
    <polygon class="cls-3" points="84.22 .35 0 .35 0 23.39 30.47 23.39 30.47 117.26 53.75 117.26 53.75 23.39 84.22 23.39 84.22 .35"/>
    <path class="cls-3" d="M134.61,80.58s-10.05,11.36-10.74,12.01c-4.33,4.5-12,5.33-17.26.56-.58-.53-2.13-2.44-2.5-3.13-3.34-6.26-.55-11.81,1.68-14.03.54-.6,5.81-6.13,5.81-6.13l-.05-.04-.03.03-15.08-13.97.06-.07-.02-.02s-4.32,4.15-4.87,4.76c-12.74,14.08-11.97,35.3,1.76,48.32,5.83,5.52,13.57,8.39,21.79,8.07.13,0,.25-.01.38-.02,9.28-.46,18.35-4.88,24.93-12.15.55-.61,9.05-10.05,9.05-10.05l-14.92-14.14Z"/>
    <path class="cls-3" d="M96.67,46.49l3.28,3.09.62.58,1.24,1.17,27.15,25.09,14.45-15.31-10.62-9.84-4.77-4.51-16.35-15.46c-3.26-4.12-.71-8.19,1.48-9.51,3.01-1.81,9.41-1.03,9.6,5.04.06,1.36-.78,3.22-1.57,4.07h0s.13-.14.13-.14l14.95,14.11-.1.11.12.12c5.2-5.47,7.47-12.69,7.06-19.21-.84-13.44-11.61-24.37-25.04-25.41-7.49-.58-14.96,1.98-20.49,7.03-.24.22-.48.46-.71.69-1.83,1.79-3.38,3.83-4.63,6.03-2.23,3.94-3.47,8.42-3.54,13.01,0,.47,0,.93.01,1.39.24,6.56,2.89,13.05,7.72,17.87Z"/>
    <path class="cls-3" d="M213.74,55.67c-6.41-4.44-13.2-6.37-20.35-9.16-6.19-2.42-14.15-4.91-15.38-12.07-1.48-8.63,5.89-15.82,15.08-13.84,5.31,1.14,10.55,5.55,14.7,8.72h.6s13.58-13.78,13.58-13.78l.06-.24c-.05-.34-3.31-3.43-3.86-3.9-13.57-11.5-32.02-15.89-48-5.63-21.12,13.56-21.61,41.63-.1,55.22,9.43,5.96,21.62,7.47,30.88,13.21,13.49,8.36,3.54,24.37-10.56,22.16-6.01-.95-12.14-4.49-16.85-8.05-1.75-1.32-3.36-2.78-4.99-4.23l-14.02,15.48c14.46,14.84,34.59,22.49,54.26,13.63,24.66-11.12,27.36-42.01,4.94-57.51Z"/>
  </g>
  <g>
    <rect class="cls-1" x="134.11" y="81.69" width="20.55" height="7.02" transform="translate(97.84 -75.86) rotate(43.34)"/>
    <rect class="cls-2" x="138.94" y="76.59" width="20.53" height="7.02" transform="translate(95.65 -80.55) rotate(43.34)"/>
    <rect class="cls-4" x="143.67" y="71.55" width="20.56" height="7.02" transform="translate(93.49 -85.18) rotate(43.34)"/>
    <polygon class="cls-3" points="84.22 .35 0 .35 0 23.39 30.47 23.39 30.47 117.26 53.75 117.26 53.75 23.39 84.22 23.39 84.22 .35"/>
    <path class="cls-3" d="M134.61,80.58s-10.05,11.36-10.74,12.01c-4.33,4.5-12,5.33-17.26.56-.58-.53-2.13-2.44-2.5-3.13-3.34-6.26-.55-11.81,1.68-14.03.54-.6,5.81-6.13,5.81-6.13l-.05-.04-.03.03-15.08-13.97.06-.07-.02-.02s-4.32,4.15-4.87,4.76c-12.74,14.08-11.97,35.3,1.76,48.32,5.83,5.52,13.57,8.39,21.79,8.07.13,0,.25-.01.38-.02,9.28-.46,18.35-4.88,24.93-12.15.55-.61,9.05-10.05,9.05-10.05l-14.92-14.14Z"/>
    <path class="cls-3" d="M96.67,46.49l3.28,3.09.62.58,1.24,1.17,27.15,25.09,14.45-15.31-10.62-9.84-4.77-4.51-16.35-15.46c-3.26-4.12-.71-8.19,1.48-9.51,3.01-1.81,9.41-1.03,9.6,5.04.06,1.36-.78,3.22-1.57,4.07h0s.13-.14.13-.14l14.95,14.11-.1.11.12.12c5.2-5.47,7.47-12.69,7.06-19.21-.84-13.44-11.61-24.37-25.04-25.41-7.49-.58-14.96,1.98-20.49,7.03-.24.22-.48.46-.71.69-1.83,1.79-3.38,3.83-4.63,6.03-2.23,3.94-3.47,8.42-3.54,13.01,0,.47,0,.93.01,1.39.24,6.56,2.89,13.05,7.72,17.87Z"/>
    <path class="cls-3" d="M213.74,55.67c-6.41-4.44-13.2-6.37-20.35-9.16-6.19-2.42-14.15-4.91-15.38-12.07-1.48-8.63,5.89-15.82,15.08-13.84,5.31,1.14,10.55,5.55,14.7,8.72h.6s13.58-13.78,13.58-13.78l.06-.24c-.05-.34-3.31-3.43-3.86-3.9-13.57-11.5-32.02-15.89-48-5.63-21.12,13.56-21.61,41.63-.1,55.22,9.43,5.96,21.62,7.47,30.88,13.21,13.49,8.36,3.54,24.37-10.56,22.16-6.01-.95-12.14-4.49-16.85-8.05-1.75-1.32-3.36-2.78-4.99-4.23l-14.02,15.48c14.46,14.84,34.59,22.49,54.26,13.63,24.66-11.12,27.36-42.01,4.94-57.51Z"/>
  </g>
  <g>
    <rect class="cls-1" x="134.11" y="81.69" width="20.55" height="7.02" transform="translate(97.84 -75.86) rotate(43.34)"/>
    <rect class="cls-2" x="138.94" y="76.59" width="20.53" height="7.02" transform="translate(95.65 -80.55) rotate(43.34)"/>
    <rect class="cls-4" x="143.67" y="71.55" width="20.56" height="7.02" transform="translate(93.49 -85.18) rotate(43.34)"/>
    <polygon class="cls-3" points="84.22 .35 0 .35 0 23.39 30.47 23.39 30.47 117.26 53.75 117.26 53.75 23.39 84.22 23.39 84.22 .35"/>
    <path class="cls-3" d="M134.61,80.58s-10.05,11.36-10.74,12.01c-4.33,4.5-12,5.33-17.26.56-.58-.53-2.13-2.44-2.5-3.13-3.34-6.26-.55-11.81,1.68-14.03.54-.6,5.81-6.13,5.81-6.13l-.05-.04-.03.03-15.08-13.97.06-.07-.02-.02s-4.32,4.15-4.87,4.76c-12.74,14.08-11.97,35.3,1.76,48.32,5.83,5.52,13.57,8.39,21.79,8.07.13,0,.25-.01.38-.02,9.28-.46,18.35-4.88,24.93-12.15.55-.61,9.05-10.05,9.05-10.05l-14.92-14.14Z"/>
    <path class="cls-3" d="M96.67,46.49l3.28,3.09.62.58,1.24,1.17,27.15,25.09,14.45-15.31-10.62-9.84-4.77-4.51-16.35-15.46c-3.26-4.12-.71-8.19,1.48-9.51,3.01-1.81,9.41-1.03,9.6,5.04.06,1.36-.78,3.22-1.57,4.07h0s.13-.14.13-.14l14.95,14.11-.1.11.12.12c5.2-5.47,7.47-12.69,7.06-19.21-.84-13.44-11.61-24.37-25.04-25.41-7.49-.58-14.96,1.98-20.49,7.03-.24.22-.48.46-.71.69-1.83,1.79-3.38,3.83-4.63,6.03-2.23,3.94-3.47,8.42-3.54,13.01,0,.47,0,.93.01,1.39.24,6.56,2.89,13.05,7.72,17.87Z"/>
    <path class="cls-3" d="M213.74,55.67c-6.41-4.44-13.2-6.37-20.35-9.16-6.19-2.42-14.15-4.91-15.38-12.07-1.48-8.63,5.89-15.82,15.08-13.84,5.31,1.14,10.55,5.55,14.7,8.72h.6s13.58-13.78,13.58-13.78l.06-.24c-.05-.34-3.31-3.43-3.86-3.9-13.57-11.5-32.02-15.89-48-5.63-21.12,13.56-21.61,41.63-.1,55.22,9.43,5.96,21.62,7.47,30.88,13.21,13.49,8.36,3.54,24.37-10.56,22.16-6.01-.95-12.14-4.49-16.85-8.05-1.75-1.32-3.36-2.78-4.99-4.23l-14.02,15.48c14.46,14.84,34.59,22.49,54.26,13.63,24.66-11.12,27.36-42.01,4.94-57.51Z"/>
  </g>
  <g>
    <rect class="cls-1" x="134.11" y="81.69" width="20.55" height="7.02" transform="translate(97.84 -75.86) rotate(43.34)"/>
    <rect class="cls-2" x="138.94" y="76.59" width="20.53" height="7.02" transform="translate(95.65 -80.55) rotate(43.34)"/>
    <rect class="cls-4" x="143.67" y="71.55" width="20.56" height="7.02" transform="translate(93.49 -85.18) rotate(43.34)"/>
    <polygon class="cls-3" points="84.22 .35 0 .35 0 23.39 30.47 23.39 30.47 117.26 53.75 117.26 53.75 23.39 84.22 23.39 84.22 .35"/>
    <path class="cls-3" d="M134.61,80.58s-10.05,11.36-10.74,12.01c-4.33,4.5-12,5.33-17.26.56-.58-.53-2.13-2.44-2.5-3.13-3.34-6.26-.55-11.81,1.68-14.03.54-.6,5.81-6.13,5.81-6.13l-.05-.04-.03.03-15.08-13.97.06-.07-.02-.02s-4.32,4.15-4.87,4.76c-12.74,14.08-11.97,35.3,1.76,48.32,5.83,5.52,13.57,8.39,21.79,8.07.13,0,.25-.01.38-.02,9.28-.46,18.35-4.88,24.93-12.15.55-.61,9.05-10.05,9.05-10.05l-14.92-14.14Z"/>
    <path class="cls-3" d="M96.67,46.49l3.28,3.09.62.58,1.24,1.17,27.15,25.09,14.45-15.31-10.62-9.84-4.77-4.51-16.35-15.46c-3.26-4.12-.71-8.19,1.48-9.51,3.01-1.81,9.41-1.03,9.6,5.04.06,1.36-.78,3.22-1.57,4.07h0s.13-.14.13-.14l14.95,14.11-.1.11.12.12c5.2-5.47,7.47-12.69,7.06-19.21-.84-13.44-11.61-24.37-25.04-25.41-7.49-.58-14.96,1.98-20.49,7.03-.24.22-.48.46-.71.69-1.83,1.79-3.38,3.83-4.63,6.03-2.23,3.94-3.47,8.42-3.54,13.01,0,.47,0,.93.01,1.39.24,6.56,2.89,13.05,7.72,17.87Z"/>
    <path class="cls-3" d="M213.74,55.67c-6.41-4.44-13.2-6.37-20.35-9.16-6.19-2.42-14.15-4.91-15.38-12.07-1.48-8.63,5.89-15.82,15.08-13.84,5.31,1.14,10.55,5.55,14.7,8.72h.6s13.58-13.78,13.58-13.78l.06-.24c-.05-.34-3.31-3.43-3.86-3.9-13.57-11.5-32.02-15.89-48-5.63-21.12,13.56-21.61,41.63-.1,55.22,9.43,5.96,21.62,7.47,30.88,13.21,13.49,8.36,3.54,24.37-10.56,22.16-6.01-.95-12.14-4.49-16.85-8.05-1.75-1.32-3.36-2.78-4.99-4.23l-14.02,15.48c14.46,14.84,34.59,22.49,54.26,13.63,24.66-11.12,27.36-42.01,4.94-57.51Z"/>
  </g>
  <g>
    <rect class="cls-1" x="134.11" y="81.69" width="20.55" height="7.02" transform="translate(97.84 -75.86) rotate(43.34)"/>
    <rect class="cls-2" x="138.94" y="76.59" width="20.53" height="7.02" transform="translate(95.65 -80.55) rotate(43.34)"/>
    <rect class="cls-4" x="143.67" y="71.55" width="20.56" height="7.02" transform="translate(93.49 -85.18) rotate(43.34)"/>
    <polygon class="cls-3" points="84.22 .35 0 .35 0 23.39 30.47 23.39 30.47 117.26 53.75 117.26 53.75 23.39 84.22 23.39 84.22 .35"/>
    <path class="cls-3" d="M134.61,80.58s-10.05,11.36-10.74,12.01c-4.33,4.5-12,5.33-17.26.56-.58-.53-2.13-2.44-2.5-3.13-3.34-6.26-.55-11.81,1.68-14.03.54-.6,5.81-6.13,5.81-6.13l-.05-.04-.03.03-15.08-13.97.06-.07-.02-.02s-4.32,4.15-4.87,4.76c-12.74,14.08-11.97,35.3,1.76,48.32,5.83,5.52,13.57,8.39,21.79,8.07.13,0,.25-.01.38-.02,9.28-.46,18.35-4.88,24.93-12.15.55-.61,9.05-10.05,9.05-10.05l-14.92-14.14Z"/>
    <path class="cls-3" d="M96.67,46.49l3.28,3.09.62.58,1.24,1.17,27.15,25.09,14.45-15.31-10.62-9.84-4.77-4.51-16.35-15.46c-3.26-4.12-.71-8.19,1.48-9.51,3.01-1.81,9.41-1.03,9.6,5.04.06,1.36-.78,3.22-1.57,4.07h0s.13-.14.13-.14l14.95,14.11-.1.11.12.12c5.2-5.47,7.47-12.69,7.06-19.21-.84-13.44-11.61-24.37-25.04-25.41-7.49-.58-14.96,1.98-20.49,7.03-.24.22-.48.46-.71.69-1.83,1.79-3.38,3.83-4.63,6.03-2.23,3.94-3.47,8.42-3.54,13.01,0,.47,0,.93.01,1.39.24,6.56,2.89,13.05,7.72,17.87Z"/>
    <path class="cls-3" d="M213.74,55.67c-6.41-4.44-13.2-6.37-20.35-9.16-6.19-2.42-14.15-4.91-15.38-12.07-1.48-8.63,5.89-15.82,15.08-13.84,5.31,1.14,10.55,5.55,14.7,8.72h.6s13.58-13.78,13.58-13.78l.06-.24c-.05-.34-3.31-3.43-3.86-3.9-13.57-11.5-32.02-15.89-48-5.63-21.12,13.56-21.61,41.63-.1,55.22,9.43,5.96,21.62,7.47,30.88,13.21,13.49,8.36,3.54,24.37-10.56,22.16-6.01-.95-12.14-4.49-16.85-8.05-1.75-1.32-3.36-2.78-4.99-4.23l-14.02,15.48c14.46,14.84,34.59,22.49,54.26,13.63,24.66-11.12,27.36-42.01,4.94-57.51Z"/>
  </g>
  <g>
    <rect class="cls-1" x="137.29" y="1328.18" width="20.55" height="7.02" transform="translate(954.13 261.82) rotate(43.34)"/>
    <rect class="cls-2" x="142.12" y="1323.09" width="20.53" height="7.02" transform="translate(951.94 257.12) rotate(43.34)"/>
    <rect class="cls-4" x="146.85" y="1318.04" width="20.56" height="7.02" transform="translate(949.78 252.49) rotate(43.34)"/>
    <polygon class="cls-3" points="87.4 1246.84 3.18 1246.84 3.18 1269.88 33.65 1269.88 33.65 1363.76 56.93 1363.76 56.93 1269.88 87.4 1269.88 87.4 1246.84"/>
    <path class="cls-3" d="M137.79,1327.07s-10.05,11.36-10.74,12.01c-4.33,4.5-12,5.33-17.26.56-.58-.53-2.13-2.44-2.5-3.13-3.34-6.26-.55-11.81,1.68-14.03.54-.6,5.81-6.13,5.81-6.13l-.05-.04-.03.03-15.08-13.97.06-.07-.02-.02s-4.32,4.15-4.87,4.76c-12.74,14.08-11.97,35.3,1.76,48.32,5.83,5.52,13.57,8.39,21.79,8.07.13,0,.25-.01.38-.02,9.28-.46,18.35-4.88,24.93-12.15.55-.61,9.05-10.05,9.05-10.05l-14.92-14.14Z"/>
    <path class="cls-3" d="M99.85,1292.98l3.28,3.09.62.58,1.24,1.17,27.15,25.09,14.45-15.31-10.62-9.84-4.77-4.51-16.35-15.46c-3.26-4.12-.71-8.19,1.48-9.51,3.01-1.81,9.41-1.03,9.6,5.04.06,1.36-.78,3.22-1.57,4.07h0s.13-.14.13-.14l14.95,14.11-.1.11.12.12c5.2-5.47,7.47-12.69,7.06-19.21-.84-13.44-11.61-24.37-25.04-25.41-7.49-.58-14.96,1.98-20.49,7.03-.24.22-.48.46-.71.69-1.83,1.79-3.38,3.83-4.63,6.03-2.23,3.94-3.47,8.42-3.54,13.01,0,.47,0,.93.01,1.39.24,6.56,2.89,13.05,7.72,17.87Z"/>
    <path class="cls-3" d="M216.92,1302.16c-6.41-4.44-13.2-6.37-20.35-9.16-6.19-2.42-14.15-4.91-15.38-12.07-1.48-8.63,5.89-15.82,15.08-13.84,5.31,1.14,10.55,5.55,14.7,8.72h.6s13.58-13.78,13.58-13.78l.06-.24c-.05-.34-3.31-3.43-3.86-3.9-13.57-11.5-32.02-15.89-48-5.63-21.12,13.56-21.61,41.63-.1,55.22,9.43,5.96,21.62,7.47,30.88,13.21,13.49,8.36,3.54,24.37-10.56,22.16-6.01-.95-12.14-4.49-16.85-8.05-1.75-1.32-3.36-2.78-4.99-4.23l-14.02,15.48c14.46,14.84,34.59,22.49,54.26,13.63,24.66-11.12,27.36-42.01,4.94-57.51Z"/>
  </g>
</svg>