<?xml version="1.0" encoding="UTF-8"?>
<svg id="Layer_1" xmlns="http://www.w3.org/2000/svg" version="1.1" viewBox="0 0 288.6 183.33">
  <!-- Generator: Adobe Illustrator 30.0.0, SVG Export Plug-In . SVG Version: 2.1.1 Build 123)  -->
  <defs>
    <style>
      .st0 {
        fill: #853293;
      }

      .st1 {
        fill: #03aead;
      }

      .st2 {
        fill: #101627;
      }

      .st3 {
        fill: #ef464f;
      }
    </style>
  </defs>
  <g>
    <rect class="st0" x="160.33" y="-1131.71" width="20.55" height="7.02" transform="translate(-727.73 -424.68) rotate(43.34)"/>
    <rect class="st1" x="165.16" y="-1136.8" width="20.53" height="7.02" transform="translate(-729.91 -429.38) rotate(43.34)"/>
    <rect class="st3" x="169.89" y="-1141.85" width="20.56" height="7.02" transform="translate(-732.08 -434.01) rotate(43.34)"/>
    <polygon class="st2" points="110.44 -1213.05 26.22 -1213.05 26.22 -1190.01 56.69 -1190.01 56.69 -1096.13 79.97 -1096.13 79.97 -1190.01 110.44 -1190.01 110.44 -1213.05"/>
    <path class="st2" d="M160.83-1132.82s-10.05,11.36-10.74,12.01c-4.33,4.5-12,5.33-17.26.56-.58-.53-2.13-2.44-2.5-3.13-3.34-6.26-.55-11.81,1.68-14.03.54-.6,5.81-6.13,5.81-6.13l-.05-.04-.03.03-15.08-13.97.06-.07-.02-.02s-4.32,4.15-4.87,4.76c-12.74,14.08-11.97,35.3,1.76,48.32,5.83,5.52,13.57,8.39,21.79,8.07.13,0,.25-.01.38-.02,9.28-.46,18.35-4.88,24.93-12.15.55-.61,9.05-10.05,9.05-10.05l-14.92-14.14Z"/>
    <path class="st2" d="M122.89-1166.91l3.28,3.09.62.58,1.24,1.17,27.15,25.09,14.45-15.31-10.62-9.84-4.77-4.51-16.35-15.46c-3.26-4.12-.71-8.19,1.48-9.51,3.01-1.81,9.41-1.03,9.6,5.04.06,1.36-.78,3.22-1.57,4.07h0s.13-.14.13-.14l14.95,14.11-.1.11.12.12c5.2-5.47,7.47-12.69,7.06-19.21-.84-13.44-11.61-24.37-25.04-25.41-7.49-.58-14.96,1.98-20.49,7.03-.24.22-.48.46-.71.69-1.83,1.79-3.38,3.83-4.63,6.03-2.23,3.94-3.47,8.42-3.54,13.01,0,.47,0,.93.01,1.39.24,6.56,2.89,13.05,7.72,17.87Z"/>
    <path class="st2" d="M239.96-1157.73c-6.41-4.44-13.2-6.37-20.35-9.16-6.19-2.42-14.15-4.91-15.38-12.07-1.48-8.63,5.89-15.82,15.08-13.84,5.31,1.14,10.55,5.55,14.7,8.72h.6s13.58-13.78,13.58-13.78l.06-.24c-.05-.34-3.31-3.43-3.86-3.9-13.57-11.5-32.02-15.89-48-5.63-21.12,13.56-21.61,41.63-.1,55.22,9.43,5.96,21.62,7.47,30.88,13.21,13.49,8.36,3.54,24.37-10.56,22.16-6.01-.95-12.14-4.49-16.85-8.05-1.75-1.32-3.36-2.78-4.99-4.23l-14.02,15.48c14.46,14.84,34.59,22.49,54.26,13.63,24.66-11.12,27.36-42.01,4.94-57.51Z"/>
  </g>
  <g>
    <rect class="st0" x="160.33" y="-1131.71" width="20.55" height="7.02" transform="translate(-727.73 -424.68) rotate(43.34)"/>
    <rect class="st1" x="165.16" y="-1136.8" width="20.53" height="7.02" transform="translate(-729.91 -429.38) rotate(43.34)"/>
    <rect class="st3" x="169.89" y="-1141.85" width="20.56" height="7.02" transform="translate(-732.08 -434.01) rotate(43.34)"/>
    <polygon class="st2" points="110.44 -1213.05 26.22 -1213.05 26.22 -1190.01 56.69 -1190.01 56.69 -1096.13 79.97 -1096.13 79.97 -1190.01 110.44 -1190.01 110.44 -1213.05"/>
    <path class="st2" d="M160.83-1132.82s-10.05,11.36-10.74,12.01c-4.33,4.5-12,5.33-17.26.56-.58-.53-2.13-2.44-2.5-3.13-3.34-6.26-.55-11.81,1.68-14.03.54-.6,5.81-6.13,5.81-6.13l-.05-.04-.03.03-15.08-13.97.06-.07-.02-.02s-4.32,4.15-4.87,4.76c-12.74,14.08-11.97,35.3,1.76,48.32,5.83,5.52,13.57,8.39,21.79,8.07.13,0,.25-.01.38-.02,9.28-.46,18.35-4.88,24.93-12.15.55-.61,9.05-10.05,9.05-10.05l-14.92-14.14Z"/>
    <path class="st2" d="M122.89-1166.91l3.28,3.09.62.58,1.24,1.17,27.15,25.09,14.45-15.31-10.62-9.84-4.77-4.51-16.35-15.46c-3.26-4.12-.71-8.19,1.48-9.51,3.01-1.81,9.41-1.03,9.6,5.04.06,1.36-.78,3.22-1.57,4.07h0s.13-.14.13-.14l14.95,14.11-.1.11.12.12c5.2-5.47,7.47-12.69,7.06-19.21-.84-13.44-11.61-24.37-25.04-25.41-7.49-.58-14.96,1.98-20.49,7.03-.24.22-.48.46-.71.69-1.83,1.79-3.38,3.83-4.63,6.03-2.23,3.94-3.47,8.42-3.54,13.01,0,.47,0,.93.01,1.39.24,6.56,2.89,13.05,7.72,17.87Z"/>
    <path class="st2" d="M239.96-1157.73c-6.41-4.44-13.2-6.37-20.35-9.16-6.19-2.42-14.15-4.91-15.38-12.07-1.48-8.63,5.89-15.82,15.08-13.84,5.31,1.14,10.55,5.55,14.7,8.72h.6s13.58-13.78,13.58-13.78l.06-.24c-.05-.34-3.31-3.43-3.86-3.9-13.57-11.5-32.02-15.89-48-5.63-21.12,13.56-21.61,41.63-.1,55.22,9.43,5.96,21.62,7.47,30.88,13.21,13.49,8.36,3.54,24.37-10.56,22.16-6.01-.95-12.14-4.49-16.85-8.05-1.75-1.32-3.36-2.78-4.99-4.23l-14.02,15.48c14.46,14.84,34.59,22.49,54.26,13.63,24.66-11.12,27.36-42.01,4.94-57.51Z"/>
  </g>
  <g>
    <rect class="st0" x="160.33" y="-1131.71" width="20.55" height="7.02" transform="translate(-727.73 -424.68) rotate(43.34)"/>
    <rect class="st1" x="165.16" y="-1136.8" width="20.53" height="7.02" transform="translate(-729.91 -429.38) rotate(43.34)"/>
    <rect class="st3" x="169.89" y="-1141.85" width="20.56" height="7.02" transform="translate(-732.08 -434.01) rotate(43.34)"/>
    <polygon class="st2" points="110.44 -1213.05 26.22 -1213.05 26.22 -1190.01 56.69 -1190.01 56.69 -1096.13 79.97 -1096.13 79.97 -1190.01 110.44 -1190.01 110.44 -1213.05"/>
    <path class="st2" d="M160.83-1132.82s-10.05,11.36-10.74,12.01c-4.33,4.5-12,5.33-17.26.56-.58-.53-2.13-2.44-2.5-3.13-3.34-6.26-.55-11.81,1.68-14.03.54-.6,5.81-6.13,5.81-6.13l-.05-.04-.03.03-15.08-13.97.06-.07-.02-.02s-4.32,4.15-4.87,4.76c-12.74,14.08-11.97,35.3,1.76,48.32,5.83,5.52,13.57,8.39,21.79,8.07.13,0,.25-.01.38-.02,9.28-.46,18.35-4.88,24.93-12.15.55-.61,9.05-10.05,9.05-10.05l-14.92-14.14Z"/>
    <path class="st2" d="M122.89-1166.91l3.28,3.09.62.58,1.24,1.17,27.15,25.09,14.45-15.31-10.62-9.84-4.77-4.51-16.35-15.46c-3.26-4.12-.71-8.19,1.48-9.51,3.01-1.81,9.41-1.03,9.6,5.04.06,1.36-.78,3.22-1.57,4.07h0s.13-.14.13-.14l14.95,14.11-.1.11.12.12c5.2-5.47,7.47-12.69,7.06-19.21-.84-13.44-11.61-24.37-25.04-25.41-7.49-.58-14.96,1.98-20.49,7.03-.24.22-.48.46-.71.69-1.83,1.79-3.38,3.83-4.63,6.03-2.23,3.94-3.47,8.42-3.54,13.01,0,.47,0,.93.01,1.39.24,6.56,2.89,13.05,7.72,17.87Z"/>
    <path class="st2" d="M239.96-1157.73c-6.41-4.44-13.2-6.37-20.35-9.16-6.19-2.42-14.15-4.91-15.38-12.07-1.48-8.63,5.89-15.82,15.08-13.84,5.31,1.14,10.55,5.55,14.7,8.72h.6s13.58-13.78,13.58-13.78l.06-.24c-.05-.34-3.31-3.43-3.86-3.9-13.57-11.5-32.02-15.89-48-5.63-21.12,13.56-21.61,41.63-.1,55.22,9.43,5.96,21.62,7.47,30.88,13.21,13.49,8.36,3.54,24.37-10.56,22.16-6.01-.95-12.14-4.49-16.85-8.05-1.75-1.32-3.36-2.78-4.99-4.23l-14.02,15.48c14.46,14.84,34.59,22.49,54.26,13.63,24.66-11.12,27.36-42.01,4.94-57.51Z"/>
  </g>
  <g>
    <rect class="st0" x="160.33" y="-1131.71" width="20.55" height="7.02" transform="translate(-727.73 -424.68) rotate(43.34)"/>
    <rect class="st1" x="165.16" y="-1136.8" width="20.53" height="7.02" transform="translate(-729.91 -429.38) rotate(43.34)"/>
    <rect class="st3" x="169.89" y="-1141.85" width="20.56" height="7.02" transform="translate(-732.08 -434.01) rotate(43.34)"/>
    <polygon class="st2" points="110.44 -1213.05 26.22 -1213.05 26.22 -1190.01 56.69 -1190.01 56.69 -1096.13 79.97 -1096.13 79.97 -1190.01 110.44 -1190.01 110.44 -1213.05"/>
    <path class="st2" d="M160.83-1132.82s-10.05,11.36-10.74,12.01c-4.33,4.5-12,5.33-17.26.56-.58-.53-2.13-2.44-2.5-3.13-3.34-6.26-.55-11.81,1.68-14.03.54-.6,5.81-6.13,5.81-6.13l-.05-.04-.03.03-15.08-13.97.06-.07-.02-.02s-4.32,4.15-4.87,4.76c-12.74,14.08-11.97,35.3,1.76,48.32,5.83,5.52,13.57,8.39,21.79,8.07.13,0,.25-.01.38-.02,9.28-.46,18.35-4.88,24.93-12.15.55-.61,9.05-10.05,9.05-10.05l-14.92-14.14Z"/>
    <path class="st2" d="M122.89-1166.91l3.28,3.09.62.58,1.24,1.17,27.15,25.09,14.45-15.31-10.62-9.84-4.77-4.51-16.35-15.46c-3.26-4.12-.71-8.19,1.48-9.51,3.01-1.81,9.41-1.03,9.6,5.04.06,1.36-.78,3.22-1.57,4.07h0s.13-.14.13-.14l14.95,14.11-.1.11.12.12c5.2-5.47,7.47-12.69,7.06-19.21-.84-13.44-11.61-24.37-25.04-25.41-7.49-.58-14.96,1.98-20.49,7.03-.24.22-.48.46-.71.69-1.83,1.79-3.38,3.83-4.63,6.03-2.23,3.94-3.47,8.42-3.54,13.01,0,.47,0,.93.01,1.39.24,6.56,2.89,13.05,7.72,17.87Z"/>
    <path class="st2" d="M239.96-1157.73c-6.41-4.44-13.2-6.37-20.35-9.16-6.19-2.42-14.15-4.91-15.38-12.07-1.48-8.63,5.89-15.82,15.08-13.84,5.31,1.14,10.55,5.55,14.7,8.72h.6s13.58-13.78,13.58-13.78l.06-.24c-.05-.34-3.31-3.43-3.86-3.9-13.57-11.5-32.02-15.89-48-5.63-21.12,13.56-21.61,41.63-.1,55.22,9.43,5.96,21.62,7.47,30.88,13.21,13.49,8.36,3.54,24.37-10.56,22.16-6.01-.95-12.14-4.49-16.85-8.05-1.75-1.32-3.36-2.78-4.99-4.23l-14.02,15.48c14.46,14.84,34.59,22.49,54.26,13.63,24.66-11.12,27.36-42.01,4.94-57.51Z"/>
  </g>
  <g>
    <rect class="st0" x="160.33" y="-1131.71" width="20.55" height="7.02" transform="translate(-727.73 -424.68) rotate(43.34)"/>
    <rect class="st1" x="165.16" y="-1136.8" width="20.53" height="7.02" transform="translate(-729.91 -429.38) rotate(43.34)"/>
    <rect class="st3" x="169.89" y="-1141.85" width="20.56" height="7.02" transform="translate(-732.08 -434.01) rotate(43.34)"/>
    <polygon class="st2" points="110.44 -1213.05 26.22 -1213.05 26.22 -1190.01 56.69 -1190.01 56.69 -1096.13 79.97 -1096.13 79.97 -1190.01 110.44 -1190.01 110.44 -1213.05"/>
    <path class="st2" d="M160.83-1132.82s-10.05,11.36-10.74,12.01c-4.33,4.5-12,5.33-17.26.56-.58-.53-2.13-2.44-2.5-3.13-3.34-6.26-.55-11.81,1.68-14.03.54-.6,5.81-6.13,5.81-6.13l-.05-.04-.03.03-15.08-13.97.06-.07-.02-.02s-4.32,4.15-4.87,4.76c-12.74,14.08-11.97,35.3,1.76,48.32,5.83,5.52,13.57,8.39,21.79,8.07.13,0,.25-.01.38-.02,9.28-.46,18.35-4.88,24.93-12.15.55-.61,9.05-10.05,9.05-10.05l-14.92-14.14Z"/>
    <path class="st2" d="M122.89-1166.91l3.28,3.09.62.58,1.24,1.17,27.15,25.09,14.45-15.31-10.62-9.84-4.77-4.51-16.35-15.46c-3.26-4.12-.71-8.19,1.48-9.51,3.01-1.81,9.41-1.03,9.6,5.04.06,1.36-.78,3.22-1.57,4.07h0s.13-.14.13-.14l14.95,14.11-.1.11.12.12c5.2-5.47,7.47-12.69,7.06-19.21-.84-13.44-11.61-24.37-25.04-25.41-7.49-.58-14.96,1.98-20.49,7.03-.24.22-.48.46-.71.69-1.83,1.79-3.38,3.83-4.63,6.03-2.23,3.94-3.47,8.42-3.54,13.01,0,.47,0,.93.01,1.39.24,6.56,2.89,13.05,7.72,17.87Z"/>
    <path class="st2" d="M239.96-1157.73c-6.41-4.44-13.2-6.37-20.35-9.16-6.19-2.42-14.15-4.91-15.38-12.07-1.48-8.63,5.89-15.82,15.08-13.84,5.31,1.14,10.55,5.55,14.7,8.72h.6s13.58-13.78,13.58-13.78l.06-.24c-.05-.34-3.31-3.43-3.86-3.9-13.57-11.5-32.02-15.89-48-5.63-21.12,13.56-21.61,41.63-.1,55.22,9.43,5.96,21.62,7.47,30.88,13.21,13.49,8.36,3.54,24.37-10.56,22.16-6.01-.95-12.14-4.49-16.85-8.05-1.75-1.32-3.36-2.78-4.99-4.23l-14.02,15.48c14.46,14.84,34.59,22.49,54.26,13.63,24.66-11.12,27.36-42.01,4.94-57.51Z"/>
  </g>
  <g>
    <rect class="st0" x="162.96" y="122.92" width="20.55" height="7.02" transform="translate(133.99 -84.41) rotate(43.34)"/>
    <rect class="st1" x="167.79" y="117.82" width="20.53" height="7.02" transform="translate(131.81 -89.11) rotate(43.34)"/>
    <rect class="st3" x="172.52" y="112.78" width="20.56" height="7.02" transform="translate(129.64 -93.74) rotate(43.34)"/>
    <polygon class="st2" points="113.07 41.57 28.85 41.57 28.85 64.62 59.32 64.62 59.32 158.49 82.6 158.49 82.6 64.62 113.07 64.62 113.07 41.57"/>
    <path class="st2" d="M163.46,121.81s-10.05,11.36-10.74,12.01c-4.33,4.5-12,5.33-17.26.56-.58-.53-2.13-2.44-2.5-3.13-3.34-6.26-.55-11.81,1.68-14.03.54-.6,5.81-6.13,5.81-6.13l-.05-.04-.03.03-15.08-13.97.06-.07-.02-.02s-4.32,4.15-4.87,4.76c-12.74,14.08-11.97,35.3,1.76,48.32,5.83,5.52,13.57,8.39,21.79,8.07.13,0,.25-.01.38-.02,9.28-.46,18.35-4.88,24.93-12.15.55-.61,9.05-10.05,9.05-10.05l-14.92-14.14Z"/>
    <path class="st2" d="M125.52,87.72l3.28,3.09.62.58,1.24,1.17,27.15,25.09,14.45-15.31-10.62-9.84-4.77-4.51-16.35-15.46c-3.26-4.12-.71-8.19,1.48-9.51,3.01-1.81,9.41-1.03,9.6,5.04.06,1.36-.78,3.22-1.57,4.07h0s.13-.14.13-.14l14.95,14.11-.1.11.12.12c5.2-5.47,7.47-12.69,7.06-19.21-.84-13.44-11.61-24.37-25.04-25.41-7.49-.58-14.96,1.98-20.49,7.03-.24.22-.48.46-.71.69-1.83,1.79-3.38,3.83-4.63,6.03-2.23,3.94-3.47,8.42-3.54,13.01,0,.47,0,.93.01,1.39.24,6.56,2.89,13.05,7.72,17.87Z"/>
    <path class="st2" d="M242.59,96.89c-6.41-4.44-13.2-6.37-20.35-9.16-6.19-2.42-14.15-4.91-15.38-12.07-1.48-8.63,5.89-15.82,15.08-13.84,5.31,1.14,10.55,5.55,14.7,8.72h.6s13.58-13.78,13.58-13.78l.06-.24c-.05-.34-3.31-3.43-3.86-3.9-13.57-11.5-32.02-15.89-48-5.63-21.12,13.56-21.61,41.63-.1,55.22,9.43,5.96,21.62,7.47,30.88,13.21,13.49,8.36,3.54,24.37-10.56,22.16-6.01-.95-12.14-4.49-16.85-8.05-1.75-1.32-3.36-2.78-4.99-4.23l-14.02,15.48c14.46,14.84,34.59,22.49,54.26,13.63,24.66-11.12,27.36-42.01,4.94-57.51Z"/>
  </g>
</svg>