<?xml version="1.0" encoding="UTF-8"?>
<svg id="Layer_1" xmlns="http://www.w3.org/2000/svg" version="1.1" viewBox="0 0 128 128">
  <!-- Generator: Adobe Illustrator 30.0.0, SVG Export Plug-In . SVG Version: 2.1.1 Build 123)  -->
  <defs>
    <style>
      .st0 {
        fill: #fff;
      }

      .st1 {
        fill: #8e2f92;
      }

      .st2 {
        fill: #00b1af;
      }

      .st3 {
        fill: #ef364a;
      }
    </style>
  </defs>
  <path class="st0" d="M78.98,86.93s-10.64,12.03-11.37,12.72c-4.59,4.77-12.7,5.64-18.28.59-.62-.55-2.26-2.59-2.65-3.32-3.54-6.63-.59-12.51,1.78-14.85.58-.64,6.15-6.49,6.16-6.49l-.05-.05-.03.03-15.97-14.8.07-.07-.02-.02s-4.57,4.4-5.16,5.04c-13.49,14.91-12.68,37.39,1.87,51.18,6.17,5.85,14.37,8.88,23.08,8.55h.4c9.83-.51,19.43-5.18,26.4-12.89.58-.64,9.59-10.64,9.59-10.64l-15.81-14.98Z"/>
  <path class="st0" d="M38.79,50.82l3.48,3.27.66.62,1.31,1.24,28.76,26.57,15.3-16.22-11.25-10.42-5.05-4.78-17.32-16.37c-3.45-4.36-.75-8.68,1.57-10.08,3.18-1.92,9.97-1.09,10.17,5.34.07,1.43-.83,3.4-1.67,4.31h0l.14-.15,15.83,14.94-.11.11.13.12c5.51-5.79,7.91-13.44,7.48-20.34-.89-14.24-12.29-25.81-26.52-26.92-7.93-.61-15.84,2.1-21.71,7.44l-.75.73c-1.94,1.9-3.58,4.06-4.9,6.39-2.36,4.18-3.68,8.92-3.75,13.78,0,.49,0,.98.01,1.47.26,6.96,3.06,13.82,8.17,18.93"/>
  <rect class="st1" x="86" y="80.37" width="7.43" height="21.77" transform="translate(-38.23 93.89) rotate(-46.67)"/>
  <rect class="st2" x="91.11" y="74.98" width="7.43" height="21.75" transform="translate(-32.7 95.91) rotate(-46.67)"/>
  <rect class="st3" x="96.13" y="69.63" width="7.43" height="21.77" transform="translate(-27.24 97.89) rotate(-46.67)"/>
</svg>