<?xml version="1.0" encoding="UTF-8"?>
<svg id="Layer_1" xmlns="http://www.w3.org/2000/svg" version="1.1" viewBox="0 0 128 128">
  <!-- Generator: Adobe Illustrator 30.0.0, SVG Export Plug-In . SVG Version: 2.1.1 Build 123)  -->
  <defs>
    <style>
      .st0 {
        fill: #fff;
      }

      .st1 {
        fill: #8e2f92;
      }

      .st2 {
        fill: #00b1af;
      }

      .st3 {
        fill: #ef364a;
      }
    </style>
  </defs>
  <path class="st0" d="M70.88,77.42s-6.15,6.95-6.57,7.36c-2.65,2.76-7.35,3.26-10.57.34-.36-.32-1.31-1.49-1.53-1.92-2.05-3.83-.34-7.23,1.03-8.59.33-.37,3.56-3.75,3.56-3.75l-.03-.03-.02.02-9.23-8.56.04-.04h-.01s-2.64,2.53-2.98,2.9c-7.8,8.62-7.33,21.62,1.08,29.59,3.57,3.38,8.31,5.14,13.35,4.94h.23c5.68-.29,11.24-3,15.27-7.45.34-.37,5.54-6.15,5.54-6.15l-9.14-8.66Z"/>
  <path class="st0" d="M47.64,56.54l2.01,1.89.38.36.76.71,16.63,15.36,8.85-9.38-6.5-6.03-2.92-2.76-10.02-9.46c-2-2.52-.44-5.02.91-5.83,1.84-1.11,5.76-.63,5.88,3.09.04.83-.48,1.97-.96,2.49h0l.08-.08,9.16,8.64-.06.07.08.07c3.18-3.35,4.57-7.77,4.32-11.76-.51-8.24-7.11-14.92-15.33-15.56-4.59-.35-9.16,1.21-12.55,4.3l-.44.42c-1.12,1.1-2.07,2.35-2.83,3.7-1.37,2.41-2.13,5.16-2.17,7.97,0,.28,0,.57,0,.85.15,4.02,1.77,7.99,4.73,10.94"/>
  <rect class="st1" x="74.94" y="73.62" width="4.3" height="12.59" transform="translate(-33.94 81.15) rotate(-46.67)"/>
  <rect class="st2" x="77.9" y="70.51" width="4.3" height="12.57" transform="translate(-30.74 82.32) rotate(-46.67)"/>
  <rect class="st3" x="80.8" y="67.41" width="4.3" height="12.59" transform="translate(-27.59 83.46) rotate(-46.67)"/>
</svg>